<?xml version="1.0" encoding="UTF-8" standalone="no"?>
<svg width="18px" height="18px" viewBox="0 0 18 18" version="1.1" xmlns="http://www.w3.org/2000/svg">
    <!-- Generator: Sketch 3.6.1 (26313) - http://www.bohemiancoding.com/sketch -->
    <title>video_color</title>
    <desc>Created with Sketch.</desc>
    <defs></defs>
    <g id="Page-1" stroke="none" stroke-width="1" fill="none" fill-rule="evenodd">
        <g id="video_color">
            <g id="drive-document" fill="#F3B137">
                <path d="M16,0 L2,0 C0.9,0 0,0.9 0,2 L0,16 C0,17.1 0.9,18 2,18 L16,18 C17.1,18 18,17.1 18,16 L18,2 C18,0.9 17.1,0 16,0 L16,0 Z" id="Shape"></path>
            </g>
            <path
                d="M12.4365361,8.69517367 L7.23321507,5.13757417 C6.9918091,4.97221287 6.67830416,4.95499521 6.42039792,5.090943 C6.16177429,5.2272495 6,5.49555807 6,5.78754093 L6,12.9023812 C6,13.1947228 6.16177429,13.4626727 6.42039792,13.5993379 C6.53589974,13.6595997 6.6621626,13.6900893 6.78806676,13.6900893 C6.94410182,13.6900893 7.09977819,13.6438168 7.23321507,13.5527067 L12.4365361,9.99510718 C12.6513982,9.84803965 12.7794546,9.60484017 12.7794546,9.34514043 C12.7794546,9.08508199 12.6513982,8.84224121 12.4365361,8.69517367 L12.4365361,8.69517367 Z"
                id="Path" fill="#FFFFFF"></path>
        </g>
    </g>
</svg>
