<?xml version="1.0" encoding="UTF-8" standalone="no"?>
<svg width="18px" height="18px" viewBox="0 0 18 18" version="1.1" xmlns="http://www.w3.org/2000/svg">
    <!-- Generator: Sketch 3.6.1 (26313) - http://www.bohemiancoding.com/sketch -->
    <title>html_color</title>
    <desc>Created with Sketch.</desc>
    <defs></defs>
    <g id="Page-1" stroke="none" stroke-width="1" fill="none" fill-rule="evenodd">
        <g id="html_color">
            <path d="M16,0 L2,0 C0.9,0 0,0.9 0,2 L0,16 C0,17.1 0.9,18 2,18 L16,18 C17.1,18 18,17.1 18,16 L18,2 C18,0.9 17.1,0 16,0 L16,0 Z" id="Shape" fill="#0099E8"></path>
            <path d="M3,8.74 L6.74,12.48 L8.16,11.07 L5.83,8.74 L8.16,6.41 L6.74,5 L3,8.74 L3,8.74 Z" id="Path" fill="#FCFCFC"></path>
            <path d="M11.42,5 L10,6.41 L12.33,8.74 L10,11.07 L11.42,12.48 L15.16,8.74 L11.42,5 Z" id="Path" fill="#FCFCFC"></path>
        </g>
    </g>
</svg>
