<?xml version="1.0" encoding="UTF-8" standalone="no"?>
<svg width="18px" height="18px" viewBox="0 0 18 18" version="1.1" xmlns="http://www.w3.org/2000/svg">
    <!-- Generator: Sketch 3.6.1 (26313) - http://www.bohemiancoding.com/sketch -->
    <title>audio_color</title>
    <desc>Created with Sketch.</desc>
    <defs></defs>
    <g id="Page-1" stroke="none" stroke-width="1" fill="none" fill-rule="evenodd">
        <g id="audio_color">
            <g id="drive-document" fill="#F16C00">
                <path d="M16,0 L2,0 C0.9,0 0,0.9 0,2 L0,16 C0,17.1 0.9,18 2,18 L16,18 C17.1,18 18,17.1 18,16 L18,2 C18,0.9 17.1,0 16,0 L16,0 Z" id="Shape"></path>
            </g>
            <path
                d="M9.04166667,3 C6.2575463,3 4,5.33315789 4,8.21052632 L4,12.2631579 C4,13.2242105 4.75064815,14 5.68055556,14 L7.36111111,14 L7.36111111,9.36842105 L5.12037037,9.36842105 L5.12037037,8.21052632 C5.12037037,5.97 6.87375,4.15789474 9.04166667,4.15789474 C11.2095833,4.15789474 12.962963,5.97 12.962963,8.21052632 L12.962963,9.36842105 L10.7222222,9.36842105 L10.7222222,14 L12.4027778,14 C13.3326852,14 14.0833333,13.2242105 14.0833333,12.2631579 L14.0833333,8.21052632 C14.0833333,5.33315789 11.825787,3 9.04166667,3 L9.04166667,3 Z"
                id="Shape" fill="#FFFFFF"></path>
        </g>
    </g>
</svg>
