<?xml version="1.0" encoding="UTF-8" standalone="no"?>
<svg width="18px" height="18px" viewBox="0 0 18 18" version="1.1" xmlns="http://www.w3.org/2000/svg">
    <!-- Generator: Sketch 3.6.1 (26313) - http://www.bohemiancoding.com/sketch -->
    <title>pdf_color</title>
    <desc>Created with Sketch.</desc>
    <defs></defs>
    <g id="Page-1" stroke="none" stroke-width="1" fill="none" fill-rule="evenodd">
        <g id="pdf_color">
            <g id="drive-document" fill="#DA3737">
                <path d="M16,0 L2,0 C0.9,0 0,0.9 0,2 L0,16 C0,17.1 0.9,18 2,18 L16,18 C17.1,18 18,17.1 18,16 L18,2 C18,0.9 17.1,0 16,0 L16,0 Z" id="Shape"></path>
            </g>
            <g id="drive-document" fill="#DA3737">
                <path d="M16,0 L2,0 C0.9,0 0,0.9 0,2 L0,16 C0,17.1 0.9,18 2,18 L16,18 C17.1,18 18,17.1 18,16 L18,2 C18,0.9 17.1,0 16,0 L16,0 Z" id="Shape"></path>
            </g>
            <path
                d="M8.63038672,8.14 C8.40038672,8.88 8.07038672,9.67 7.62038672,10.54 C7.42038672,10.92 7.20038672,11.28 7.12038672,11.58 L7.23038672,11.54 L7.23038672,11.54 C8.50038672,11.05 9.70038672,10.77 10.5703867,10.61 C10.4203867,10.51 10.2803867,10.4 10.1603867,10.29 C9.56038672,9.78 9.04038672,9.04 8.63038672,8.14 L8.63038672,8.14 Z M15.1103867,11.95 C14.9403867,12.14 14.6403867,12.25 14.2003867,12.25 C13.4403867,12.25 12.2003867,12.02 11.2003867,11.51 C9.48038672,11.7 8.20038672,11.93 7.17038672,12.26 C7.12038672,12.28 7.06038672,12.3 6.99038672,12.33 C5.75038672,14.45 4.83038672,15.4 4.02038672,15.4 C3.86038672,15.4 3.70038672,15.36 3.58038672,15.29 L3.10038672,14.98 L3.07038672,14.93 C3.00038672,14.75 2.98038672,14.58 3.02038672,14.39 C3.13038672,13.86 3.70038672,13.02 4.90038672,12.27 C5.09038672,12.13 5.39038672,11.97 5.79038672,11.78 C6.09038672,11.26 6.41038672,10.65 6.75038672,9.98 C7.26038672,8.95 7.58038672,7.93 7.83038672,7.05 L7.83038672,7.04 C7.46038672,5.83 7.24038672,5.1 7.61038672,3.77 C7.70038672,3.39 8.03038672,3 8.40038672,3 L8.64038672,3 C8.87038672,3 9.09038672,3.08 9.25038672,3.24 C9.91038672,3.9 9.60038672,5.51 9.27038672,6.84 C9.25038672,6.9 9.24038672,6.95 9.23038672,6.98 C9.63038672,8.11 10.2003867,9.02 10.8303867,9.54 C11.0903867,9.74 11.3803867,9.94 11.7003867,10.12 C12.1503867,10.07 12.5803867,10.05 12.9903867,10.05 C14.2303867,10.05 14.9803867,10.27 15.2703867,10.74 C15.3703867,10.9 15.4203867,11.09 15.3903867,11.29 C15.3803867,11.54 15.2903867,11.77 15.1103867,11.95 L15.1103867,11.95 Z M14.7003867,11.24 C14.6003867,11.14 14.2003867,10.89 12.8003867,10.89 C12.7303867,10.89 12.6603867,10.89 12.5703867,10.99 C13.3003867,11.31 14.0103867,11.5 14.4703867,11.5 C14.5403867,11.5 14.6003867,11.49 14.6603867,11.48 L14.7003867,11.48 C14.7503867,11.46 14.7803867,11.45 14.7903867,11.35 C14.7703867,11.32 14.7503867,11.28 14.7003867,11.24 L14.7003867,11.24 Z M5.53038672,12.7 C5.32038672,12.82 5.15038672,12.93 5.05038672,13.01 C4.34038672,13.66 3.89038672,14.32 3.84038672,14.7 C4.29038672,14.55 4.88038672,13.89 5.53038672,12.7 L5.53038672,12.7 Z M8.55038672,5.79 L8.60038672,5.75 C8.67038672,5.43 8.70038672,5.15 8.76038672,4.93 L8.79038672,4.77 C8.89038672,4.2 8.87038672,3.91 8.70038672,3.67 L8.55038672,3.62 C8.53038672,3.65 8.50038672,3.7 8.48038672,3.74 C8.31038672,4.16 8.32038672,4.89 8.55038672,5.79 L8.55038672,5.79 Z"
                id="Shape" fill="#FFFFFF"></path>
        </g>
    </g>
</svg>
