<?xml version="1.0" encoding="UTF-8" standalone="no"?>
<svg width="18px" height="18px" viewBox="0 0 18 18" version="1.1" xmlns="http://www.w3.org/2000/svg">
    <!-- Generator: Sketch 3.6.1 (26313) - http://www.bohemiancoding.com/sketch -->
    <title>zip_color</title>
    <desc>Created with Sketch.</desc>
    <defs></defs>
    <g id="Page-1" stroke="none" stroke-width="1" fill="none" fill-rule="evenodd">
        <g id="zip_color">
            <path d="M16,0 L2,0 C0.9,0 0,0.9 0,2 L0,16 C0,17.1 0.9,18 2,18 L16,18 C17.1,18 18,17.1 18,16 L18,2 C18,0.9 17.1,0 16,0 L16,0 Z" id="Shape" fill="#808B7F"></path>
            <path d="M11,14 L9,14 L9,12 L7,12 L7,10 L9,10 L9,12 L11,12 L11,14 Z" id="Path" fill="#FFFFFF"></path>
            <path d="M11,6 L9,6 L9,8 L11,8 L11,10 L9,10 L9,8 L7,8 L7,6 L9,6 L9,4 L7,4 L7,2 L9,2 L9,4 L11,4 L11,6 Z" id="Path" fill="#FFFFFF"></path>
        </g>
    </g>
</svg>
